# xmcd
#
# Track frame offsets:
#  150
#  16611
#  36881
#  73056
#  93010
#  117884
#  154829
#  179917
#  218829
#  234461
#  254091
#  282969
#  305675
#
# Disc length: 4377 seconds
#
# Revision: 1
# Processed by: cddbd v1.5.2PL0 Copyright (c) Steve Scherf et al.
# Submitted via: Collectorz.com_Music_Collector 6.11
#
DISCID=b711170d
DTITLE=Eric Clapton - The Very Best Of Blues and Ballads
DYEAR=2005
DGENRE=Ballad - Blues
TTITLE0=Wonderful Tonight
TTITLE1=Tears In Heaven
TTITLE2=Double Trouble (Live)
TTITLE3=Layla (Unplugged)
TTITLE4=Pretty Girl
TTITLE5=Same Old Blues
TTITLE6=Running On Faith
TTITLE7=Rambling On My Mind
TTITLE8=Please Be With Me
TTITLE9=Knockin' On The Heaven's Door
TTITLE10=Old Love
TTITLE11=It All Depends
TTITLE12=Sting feat. Eric Clapton - It's Probably Me
EXTD=
EXTT0=
EXTT1=
EXTT2=
EXTT3=
EXTT4=
EXTT5=
EXTT6=
EXTT7=
EXTT8=
EXTT9=
EXTT10=
EXTT11=
EXTT12=
PLAYORDER=
